<?xml version="1.0" encoding="UTF-8"?><svg id="a" xmlns="http://www.w3.org/2000/svg" viewBox="0 0 141.04 158.91"><defs><style>.b{fill:#fff;}</style></defs><g><path d="M59.88,29.95c-1.76,.98-3.54,1.94-5.29,2.95-1.67,.96-3.34,1.91-4.95,2.95-1.19,.77-2.28,1.71-3.46,2.5-.94,.63-1.96,1.13-2.93,1.72-2.35,1.44-4.36,3.31-6.45,5.08-1.83,1.55-3.13,3.51-4.85,5.1-1.01,.93-.96,1.77-.14,2.92,.16,.22,.22,.67,.1,.89-.63,1.15-1.34,2.27-2.02,3.4-.05,.08-.14,.16-.15,.24-.19,2.15-2.08,1.93-3.43,2.59-1.27,.62-2.37,.58-3.69,.34-.82-.15-1.81,.71-2.71,.22-.85-.46-1.55-1.18-2.32-1.79-.04-.03-.05-.13-.03-.18,.29-.87,.62-1.74,.89-2.62,.23-.74,.35-1.51,.59-2.24,.34-1.06,.58-2.19,1.12-3.14,1.51-2.65,3.38-5.07,5.56-7.21,1.19-1.16,2.54-2.16,3.85-3.19,1.31-1.03,2.61-2.07,3.99-2.99,2.43-1.63,4.92-3.17,7.38-4.75,1.27-.82,2.5-1.71,3.81-2.46,1.77-1.02,3.6-1.93,5.41-2.89,.39-.21,.75-.47,1.14-.68,2-1.07,4-2.11,6-3.18,.5-.27,.95-.63,1.46-.86,1.11-.51,2.25-.94,3.35-1.45,2.71-1.25,5.63-1.59,8.53-1.98,.87-.12,1.03-.41,.86-1.23-.49-2.38-.96-4.76-1.32-7.16-.26-1.74-.35-3.51-.49-5.26-.12-1.52,1.1-2.24,1.94-3.19,.32-.36,.65-.77,.79-1.21,.36-1.15,.78-1.31,1.69-.52,1.06,.92,1.63,1.01,2.81,.41,.19-.1,.38-.23,.53-.38,.68-.72,1.56-.89,2.32-.31,.21,.16,.33,.7,.23,.98-.67,1.85-.51,3.73-.23,5.61,.03,.18,.12,.34,.24,.71,.35-.43,.65-.72,.88-1.06,.54-.84,1.2-1.47,2.18-1.85,1.34-.51,2.37-1.63,3.88-1.86,2.53-.39,5.03-.98,7.57-1.33,1.23-.17,2.51,.02,3.77,0,1.04-.01,2.08-.19,3.11-.11,3.55,.28,7.1,.62,10.64,.98,2.04,.21,4,.67,5.88,1.6,1.33,.66,2.86,.89,4.25,1.44,1.02,.4,2.03,.91,2.91,1.55,2.46,1.8,4.96,3.53,7.12,5.75,1.39,1.43,2.26,3.16,3.45,4.68,1.64,2.1,2.73,4.51,3.92,6.86,.5,.98,.98,1.99,1.28,3.05,.2,.7,.39,1.53-.44,2.14-.21,.15-.27,.69-.2,1.01,.25,1.13-.08,2.12-.57,3.09-.09,.19-.38,.39-.58,.39-.83,0-1.23,.53-1.58,1.17-.41,.76-1.09,1.06-1.92,.87-.86-.2-1.71-.46-2.53-.76-.2-.07-.35-.42-.41-.67-.19-.83-.18-1.74-.52-2.49-.98-2.13-1.98-4.28-3.21-6.28-1.28-2.09-2.75-4.07-4.29-5.98-1.06-1.31-2.33-2.47-3.61-3.59-1.34-1.17-2.74-2.31-4.23-3.28-1.09-.71-2.35-1.15-3.56-1.66-.66-.28-1.37-.43-2.05-.67-3.4-1.22-6.94-1.68-10.51-1.91-2.26-.15-4.53-.2-6.8-.25-1.38-.03-2.77-.07-4.15,.05-.93,.08-1.84,.4-2.76,.62-.12,.03-.29,.08-.33,.17-.56,1.42-1.91,1.45-3.08,1.8-.85,.25-1.15,.05-1.26-.79-.04-.26-.14-.58-.33-.73-.56-.47-1.19-.87-2.01-1.46,.21,1.36,.28,2.51,.57,3.6,.55,2.06,1.21,4.09,1.84,6.14,.24,.8-.36,.85-.85,1.06-.44,.19-.94,.39-1.24,.73-.37,.41-.26,.81,.41,.88,2.19,.22,4.24,.84,6.11,2.05,.18,.12,.61,.06,.8-.08,.23-.17,.52-.59,.45-.77-.25-.66,.13-.85,.58-1.08,1.11-.56,2.27-.76,3.49-.45,.12,.03,.27,.09,.37,.05,1.97-.7,3.08,.47,4.25,1.79,.82,.91,1.86,1.67,2.92,2.32,2.48,1.53,4.59,3.45,6.64,5.51,1.57,1.57,1.88,3.7,3.1,5.4,.71,.99,1.19,2.14,1.8,3.2,1.05,1.81,2.12,3.62,3.19,5.42,1.12,1.89,2.31,3.73,3.36,5.66,1,1.85,1.92,3.74,2.74,5.68,1.02,2.41,1.94,4.86,2.81,7.33,.56,1.62,1.2,3.28,1.35,4.96,.23,2.55,1.16,4.89,1.75,7.33,.37,1.55,.66,3.11,1.01,4.66,.12,.52,.33,1.02,.51,1.52,.4,1.12,.18,1.61-.89,2.09-.66,.3-1.28,.69-1.95,.94-.35,.13-.78,.02-1.17,.07-.32,.04-.69,.07-.95,.23-1.24,.77-2.56,.61-3.58-.41-.42-.41-.92-.76-1.44-1.04-.45-.23-.37-.42-.31-.87,.1-.82,.24-2.06-.21-2.43-1.21-1-.87-2.14-.94-3.37-.11-1.8-.51-3.58-.8-5.37-.02-.14-.17-.25-.44-.63-.15,1-.33,1.74-.35,2.49-.04,1.39,.04,2.76-.88,3.98-.31,.41-.27,1.07-.42,1.61-.5,1.77-1.07,3.52-1.5,5.31-.28,1.19-.24,2.46-.57,3.63-.63,2.23-1.39,4.43-2.18,6.6-.39,1.08-1.02,2.07-1.47,3.13-.34,.81-.5,1.69-.87,2.49-.64,1.38-1.36,2.72-2.07,4.07-.23,.44-.47,.9-.79,1.27-1.11,1.31-2.25,2.6-3.41,3.87-.22,.24-.59,.5-.89,.5-1.88,.03-2.24,1.56-2.87,2.82-.77,1.53-1.57,3.06-2.31,4.61-.84,1.75-1.63,3.54-2.47,5.29-1.42,2.95-2.86,5.88-4.31,8.81-.72,1.46-1.45,2.93-2.22,4.37-.19,.36-.64,.58-.85,.93-.39,.62-.65,1.31-1.03,1.93-1.06,1.7-1.98,3.54-3.3,5.02-1.73,1.94-3.68,3.73-5.74,5.31-1.47,1.12-3.28,1.82-4.97,2.65-1.3,.64-2.61,1.27-3.98,1.74-2.34,.8-4.72,1.48-7.08,2.21-1.56,.48-3.11,1.03-4.69,1.42-1.48,.37-3.01,.56-4.51,.84-2.24,.42-4.48,.89-6.73,1.28-.7,.12-1.44,0-2.15,.03-2.38,.12-4.76,.27-7.14,.38-1.18,.05-2.38,.13-3.56,.04-.83-.06-1.65-.58-2.46-.54-2.62,.12-4.96-.92-7.4-1.55-.74-.2-1.39-.73-2.11-1.05-1.97-.86-3.62-2.22-5.01-3.76-2.2-2.45-4.33-5.01-6.1-7.78-1.62-2.52-3.04-5.23-3.63-8.26-.06-.32-.24-.66-.46-.91-1.21-1.37-1.88-3-2.14-4.76-.28-1.86-.77-3.78-.54-5.6,.45-3.54,1.73-6.88,3.46-10.04,1.08-1.98,2.07-4,3.1-6.01,.64-1.25,1.23-2.54,1.95-3.75,.8-1.35,1.78-2.58,2.57-3.93,.8-1.35,1.45-2.79,2.18-4.18,.91-1.72,1.85-3.43,2.77-5.15,.29-.55,.53-1.14,.81-1.7,.54-1.05,1.18-2.06,1.64-3.15,.56-1.33,.93-2.74,1.44-4.09,1.08-2.82,2.1-5.66,3.33-8.41,1.23-2.74,2.67-5.38,4.04-8.06,1.19-2.32,2.23-4.74,3.66-6.9,1.78-2.66,3.76-5.21,5.9-7.6,2.18-2.43,4.7-4.55,6.99-6.89,1.98-2.02,3.8-4.2,5.79-6.22,.98-1,2.19-1.77,3.27-2.67,2.2-1.82,4.39-3.66,6.59-5.49,.14-.12,.3-.2,.46-.3l-.15-.19Zm26.94,22.17c-1.12,.66-2.08,1.42-3.17,1.79-1.11,.37-2.35,.34-3.54,.48-.06,0-.12-.04-.18-.07-1.08-.53-1.68-1.89-1.48-3.12,.07-.39,.02-.91-.19-1.23-1.25-1.92-2.22-3.85-.95-6.15,.1-.19,.1-.44,.21-.63,.23-.41,.51-.79,.75-1.18,.3-.48,.56-.99,.9-1.44,.19-.25,.49-.44,.76-.62,.23-.14,.56-.16,.75-.34,.53-.47,1.16-.74,1.77-1.07,2-1.08,4.11-.74,6.17-.8,1.24-.04,2.3,.54,2.9,1.75,.1,.2,.29,.35,.44,.52l.27-.13c-.21-.53-.37-1.08-.63-1.58-.97-1.86-2.25-3.48-3.86-4.82-.72-.6-1.43-1.23-2.21-1.75-1.22-.81-2.48-1.54-3.74-2.28-.99-.59-2-1.14-2.99-1.72-1.37-.79-2.23,.25-3.2,.89-1.07,.7-2.11,1.44-3.2,2.11-1.42,.88-1.89,2.78-3.6,3.35-.13,.04-.21,.23-.32,.34-.58,.58-1.16,1.14-1.73,1.73-.78,.81-1.55,1.63-2.32,2.44l.12,.25c1.51-1.32,2.84-.9,4.12,.26,.34,.31,.79,.54,1.24,.67,.75,.23,1.14,.73,1.15,1.44,.01,1.21,.23,2.47-.62,3.54-.15,.19-.35,.46-.33,.67,.15,1.2-.84,1.61-1.54,2.07-1.59,1.03-3.26,1.88-4.37,3.55-.5,.74-1.38,1.2-2.41,.95-.99-.23-1.5-.85-1.61-1.85-.03-.24-.14-.52-.3-.67-.54-.51-.51-1.11-.4-1.76,.06-.34,.16-.7,.1-1.03-.03-.18-.41-.47-.52-.43-1.34,.55-2.9,.28-4.07,1.58-2.04,2.27-4.36,4.27-6.51,6.43-.7,.7-1.25,1.54-1.87,2.31-.12,.14-.31,.23-.43,.37-.46,.52-.94,1.04-1.36,1.6-.34,.45-.59,.96-.89,1.44-.91,1.46-1.84,2.9-2.73,4.37-.38,.63-.66,1.32-.99,1.98-1.06,2.1-2.12,4.2-3.17,6.3-.43,.86-.92,1.7-1.26,2.6-.66,1.7-1.18,3.44-1.85,5.13-.72,1.8-1.54,3.57-2.31,5.35-.48,1.12-.94,2.25-1.43,3.37-.54,1.23-1.13,2.45-1.61,3.7-.14,.37-.16,.96,.05,1.25,.2,.28,.76,.36,1.17,.42,.32,.04,.75-.23,.99-.1,.61,.32,.99-.01,1.33-.35,.38-.37,.63-.87,1.01-1.24,.28-.27,.68-.57,1.04-.58,1.54-.05,3.08-.03,4.61,.04,1.76,.08,2.71,.9,3.14,2.58,.04,.17,.12,.39,.25,.48,1.07,.7,1.86,1.68,3.11,2.28,2.31,1.09,4.61,2.18,7.08,2.78,1.52,.37,3.11,.46,4.67,.7,.86,.13,1.71,.49,2.48-.27,.13-.13,.42-.1,.64-.13,1.01-.18,2.06-.23,3.01-.57,1.55-.56,3.22-.88,4.49-2.11,1.1-1.07,2.3-2.04,3.46-3.04,.41-.35,.84-.67,1.26-1.01-1.39,.12-2.67,.41-3.95,.72-.21,.05-.46,.12-.6,.27-.96,.99-2.12,.35-3.1,.22-1.35-.17-2.63-2.32-2.55-3.71,.03-.44,.13-.96-.05-1.31-.64-1.19-.73-2.37-.54-3.7,.18-1.23-.08-2.52,.02-3.77,.25-3.13,.54-6.26,.91-9.39,.38-3.28,1.07-6.51,1.93-9.71,.24-.91,.43-1.81,.89-2.64,.08-.13,.13-.3,.14-.45,.11-1.45,.61-2.71,1.5-3.88,.84-1.09,3.06-2.02,4.44-1.81,.46,.07,.98-.08,1.45-.22,1.52-.45,3.06-.93,4.34,.45,.75,.8,1.37,1.73,2.04,2.61l-.28,.04c-.02,.39-.11,.79-.06,1.18,.09,.71-.4,1.71-1.05,2.07-.25,.14-.55,.36-.63,.6-.46,1.51-.98,3.01-1.25,4.55-.54,3.03-.96,6.08-1.36,9.14-.19,1.46-.36,2.94-.32,4.4,.08,2.64,.27,5.28,.52,7.91,.14,1.51,.24,2.95-.74,4.23,0,.01,.06,.08,.15,.2,.67-.7,1.34-1.39,1.97-2.1,.3-.34,.47-.79,.8-1.09,1.5-1.38,3.06-2.71,4.56-4.09,.89-.82,1.94-1.03,3.03-.52,.69,.32,.84,.8,.29,1.33-.89,.86-1.16,1.91-1.26,3.08-.02,.3-.3,.58-.46,.88-.32,.59-.63,1.18-.95,1.77-.23,.44-.37,.99-.71,1.32-1.17,1.11-2.42,2.12-3.62,3.2-1.76,1.59-3.44,3.27-5.25,4.8-1.39,1.17-2.94,2.15-4.41,3.23-1.09,.8-2.16,1.62-3.23,2.44-.23,.18-.41,.42-.62,.63l.14,.22c.77-.33,1.62-.54,2.31-1,1.54-1.05,3.42-1.62,4.62-3.17,.15-.19,.4-.33,.63-.42,1.59-.58,2.47-2.01,3.65-3.06,2.23-1.98,4.25-4.2,6.4-6.28,.29-.28,.77-.43,1.19-.5,.14-.02,.55,.53,.49,.63-.42,.75-.87,1.49-1.4,2.17-1.15,1.48-2.92,2.44-3.58,4.34-.13,.36-.49,.65-.77,.95-.76,.81-1.54,1.61-2.46,2.58,.73-.08,1.15-.11,1.57-.18,.43-.07,1-.04,1.25-.3,1.21-1.24,2.81-2.19,2.72-4.34-.05-1.2,2.4-3.29,3.64-3.6,.86-.22,1.99-.4,2.44-1.01,1.13-1.51,1.85-3.34,2.93-4.89,.77-1.11,1.02-2.59,2.34-3.33,.25-.14,.59-.56,.53-.72-.36-.93,.21-1.65,.47-2.43,.51-1.51,.16-2.38-1.37-3.01,.19-.68,.49-1.36,.57-2.06,.22-1.93,.45-3.87,.49-5.81,.06-3,.59-6.03-.44-8.99-.5-1.44-.9-2.92-1.32-4.39-.2-.69,.04-1.22,.73-1.42,1.24-.35,2.49-.67,3.75-.94,.26-.06,.61,.12,.86,.27,.81,.49,1.6,1.04,2.41,1.54,.11,.07,.29,.03,.72,.06-2.1-5.57-4.94-10.62-7.16-15.95-.24,.97-.34,1.9-.48,2.82-.08,.52-.35,1.04-.31,1.54,.16,1.82-.33,3.45-1.31,4.93-.41,.62-.98,1.21-1.61,1.61-.59,.37-1.35,.47-2.02,.68l-.2-1.19ZM21.68,105.71c-.59,.88-1.14,1.6-1.57,2.38-1.01,1.86-1.96,3.76-2.94,5.64-.95,1.83-2.16,3.57-2.77,5.5-.8,2.53-1.17,5.21-1.63,7.84-.1,.58,.15,1.24,.31,1.84,.46,1.68,.83,3.4,1.5,5,.65,1.55,1.63,2.96,2.44,4.45,.25,.47,.29,1.08,.61,1.48,1.19,1.46,2.36,2.95,3.71,4.25,1.48,1.44,3.15,2.7,4.74,4.02,.19,.16,.42,.29,.65,.37,1.31,.45,2.66,.81,3.93,1.34,3.01,1.27,6.19,1.31,9.35,1.32,1.65,0,3.32-.28,4.95-.58,2.28-.41,4.54-.96,6.81-1.45,.91-.2,1.84-.35,2.74-.59,.91-.24,1.8-.56,2.69-.85,.54-.18,1.09-.33,1.59-.58,1.24-.62,2.46-1.27,3.68-1.93,1.94-1.05,3.96-1.99,5.48-3.66,1.03-1.14,2.04-2.31,2.96-3.54,1.42-1.91,2.84-3.82,4.08-5.83,1.42-2.3,2.65-4.71,3.97-7.07,.29-.52,.65-1.02,.89-1.57,.41-.92,.76-1.88,1.16-2.88-1.66,.99-3.31,1.78-4.74,2.86-1.17,.89-2.46,.8-3.69,.85-2.83,.13-5.66,.02-8.5,0-1.48,0-2.95,.01-4.42-.06-1.22-.06-2.44-.24-3.66-.38-2.46-.28-4.94-.42-7.36-.9-1.8-.36-3.54-1.1-5.28-1.76-1.7-.64-3.44-1.25-5.03-2.12-2.17-1.19-4.13-2.75-6.32-3.89-2.24-1.17-3.87-3.06-5.94-4.43-1.24-.82-2.13-2.2-3.14-3.35-.46-.52-.82-1.12-1.26-1.73Z"/><path d="M124.22,53.61c-.23-1.5-.44-2.99-.68-4.49-.33-2.09-.6-4.2-1.06-6.27-.25-1.12-.77-2.19-1.26-3.24-1.34-2.82-2.7-5.63-4.14-8.4-.47-.9-1.14-1.71-1.79-2.5-1.52-1.85-3.16-3.61-4.62-5.5-1.3-1.69-2.92-3.01-4.68-4.06-1.32-.78-2.9-1.28-4.42-1.52-2.26-.36-4.57-.42-6.86-.52-.97-.04-1.96,.08-2.91,.27-.65,.13-1.16,.11-1.64-.38-.31-.31-.65-.6-1.02-.84-1.64-1.07-1.65-2.91,.05-3.94,1.28-.78,2.61-1.47,3.94-2.16,.2-.1,.55-.03,.79,.06,.98,.37,1.68,.21,2.32-.58,.43-.53,1.53-.55,1.98,.05,.53,.7,1.06,1.01,1.92,.54,.28-.15,.68-.11,1.02-.09,.87,.06,1.74,.22,2.61,.23,4.28,.03,8.23,1.05,11.5,3.96,1.36,1.21,2.44,2.77,3.91,3.78,1.58,1.09,2.37,2.75,3.55,4.11,1.72,1.96,3.16,4.16,4.65,6.31,.41,.6,.58,1.37,.85,2.06,.66,1.69,1.29,3.4,1.98,5.08,.21,.51,.55,.97,.84,1.45,.08,.13,.21,.25,.25,.39,.52,2.17,1.01,4.35,1.56,6.52,.63,2.49,.71,5.1,1.73,7.5,.1,.23-.04,.61-.17,.87-.41,.76-.82,1.54-1.34,2.22-.31,.4-.83,.64-1.27,.93-.3,.19-.74,.26-.91,.52-.83,1.24-2.25,1.43-3.45,1.98-.2,.09-.56-.16-.85-.24-.35-.09-.79-.32-1.04-.19-.69,.36-.89-.05-1-.54-.23-1.1-.4-2.22-.6-3.33l.27-.04Z"/><path d="M2.51,55.54c.03-2.57,0-4.68,.1-6.79,.1-1.97,.33-3.94,.57-5.9,.05-.45,.34-.88,.55-1.3,.61-1.23,1.2-2.49,1.88-3.68,.94-1.64,1.93-3.25,2.98-4.82,.85-1.27,1.78-2.49,2.76-3.66,1.78-2.12,3.91-3.82,6.31-5.21,1.14-.66,2.2-1.46,3.32-2.16,.44-.28,.96-.42,1.43-.66,1.36-.72,2.7-1.48,4.08-2.18,.95-.49,1.94-.9,2.92-1.34,1.78-.81,3.55-1.62,5.32-2.44,3.4-1.57,6.78-3.21,10.22-4.68,1.72-.73,3.56-1.16,5.35-1.73,.18-.06,.36-.11,.54-.17,1.75-.5,3.51-1.42,5.25-1.39,1.88,.03,3.53-.9,5.36-.74,.34,.03,.7,.05,1.02,.15,.94,.29,1.23,.89,.87,1.81-.5,1.26-1.22,2.23-2.65,2.7-1.1,.36-2.13,1.05-3.08,1.74-1.51,1.1-3.3,1.15-4.99,1.61-1.06,.29-2.12,.58-3.17,.91-1.14,.36-2.27,.74-3.39,1.14-1.09,.39-2.18,.78-3.25,1.23-2.63,1.12-5.29,2.2-7.87,3.42-2.19,1.03-4.31,2.23-6.46,3.37-1.56,.83-3.16,1.58-4.64,2.53-1.49,.96-2.92,2.04-4.26,3.21-1.01,.89-1.97,1.91-2.68,3.04-1.46,2.32-2.41,4.84-2.91,7.58-.54,2.98-.16,5.96-.38,8.93-.03,.37,.23,.76,.35,1.14,.08,.28,.16,.57,.21,.86,.06,.3,.03,.63,.14,.92,.15,.41,.62,.88,.52,1.17-.26,.75-.64,1.55-1.2,2.09-1.1,1.06-2.35,2.04-3.89,2.3-1.2,.2-2.05,1-3.1,1.4-.6,.23-1.28,.31-1.93,.35-.18,.01-.46-.32-.58-.55-.25-.49-.45-1.02-.64-1.54-.38-1-.74-2.01-.98-2.65Z"/><path d="M18.5,43.03c.03-.85,.01-1.66,.11-2.45,.07-.62,.13-1.32,.46-1.8,.74-1.09,1.58-2.14,2.51-3.08,1.19-1.2,2.47-2.32,3.79-3.37,1.47-1.16,3.01-2.24,4.55-3.3,1.74-1.2,3.49-2.39,5.3-3.48,.99-.59,2.13-.94,3.18-1.44,.89-.43,1.72-.97,2.62-1.37,1.17-.52,2.39-.94,3.57-1.43,2.02-.83,4.05-1.67,6.05-2.54,.92-.4,1.76-1.07,2.71-1.28,.89-.2,1.87,.07,2.82,.08,1.33,.02,2.66-.04,3.99,0,.29,0,.69,.17,.84,.39,.38,.56,.28,1.17-.19,1.64-.56,.57-1.16,1.13-1.81,1.6-.47,.35-1.05,.53-1.57,.82-.65,.37-1.27,.8-1.93,1.15-1.02,.54-2.05,1.07-3.11,1.52-1.91,.82-3.85,1.59-5.78,2.37-2.74,1.11-5.57,2.05-8.19,3.38-1.9,.97-3.53,2.48-5.31,3.7-1.69,1.16-2.54,2.96-3.72,4.53-1.14,1.51-2.35,3.38-4.7,3.47-.19,0-.42,.16-.56,.32-.78,.83-1.8,1.14-2.87,1.3-.41,.06-.88,0-1.28-.12-.56-.16-1.08-.44-1.49-.61Z"/><path class="b" d="M86.82,52.12l.2,1.19c.67-.21,1.43-.31,2.02-.68,.63-.4,1.2-.98,1.61-1.61,.98-1.48,1.47-3.11,1.31-4.93-.04-.5,.23-1.02,.31-1.54,.14-.92,.24-1.85,.48-2.82,2.22,5.33,5.06,10.37,7.16,15.95-.43-.03-.61,0-.72-.06-.81-.51-1.59-1.05-2.41-1.54-.25-.15-.6-.33-.86-.27-1.26,.27-2.51,.59-3.75,.94-.69,.2-.93,.73-.73,1.42,.43,1.47,.82,2.95,1.32,4.39,1.03,2.96,.5,5.99,.44,8.99-.04,1.94-.27,3.88-.49,5.81-.08,.7-.37,1.38-.57,2.06,1.53,.63,1.88,1.5,1.37,3.01-.26,.77-.83,1.5-.47,2.43,.06,.15-.28,.58-.53,.72-1.32,.74-1.57,2.22-2.34,3.33-1.08,1.56-1.8,3.38-2.93,4.89-.46,.61-1.58,.8-2.44,1.01-1.24,.31-3.69,2.4-3.64,3.6,.09,2.15-1.51,3.1-2.72,4.34-.25,.26-.82,.23-1.25,.3-.42,.07-.85,.1-1.57,.18,.93-.97,1.7-1.77,2.46-2.58,.28-.3,.65-.58,.77-.95,.66-1.9,2.43-2.87,3.58-4.34,.53-.68,.99-1.42,1.4-2.17,.05-.1-.36-.65-.49-.63-.41,.06-.89,.21-1.19,.5-2.14,2.08-4.17,4.3-6.4,6.28-1.18,1.05-2.06,2.49-3.65,3.06-.23,.08-.48,.23-.63,.42-1.21,1.55-3.08,2.11-4.62,3.17-.68,.46-1.53,.68-2.31,1l-.14-.22c.2-.21,.39-.45,.62-.63,1.07-.82,2.14-1.64,3.23-2.44,1.47-1.08,3.02-2.06,4.41-3.23,1.81-1.53,3.5-3.21,5.25-4.8,1.19-1.08,2.45-2.09,3.62-3.2,.34-.33,.48-.88,.71-1.32,.31-.59,.63-1.18,.95-1.77,.16-.29,.43-.57,.46-.88,.09-1.17,.37-2.22,1.26-3.08,.55-.53,.4-1-.29-1.33-1.09-.51-2.14-.3-3.03,.52-1.5,1.38-3.06,2.71-4.56,4.09-.33,.3-.5,.76-.8,1.09-.64,.71-1.31,1.4-1.97,2.1-.09-.12-.16-.19-.15-.2,.98-1.28,.89-2.72,.74-4.23-.25-2.63-.44-5.27-.52-7.91-.04-1.46,.13-2.94,.32-4.4,.4-3.05,.82-6.1,1.36-9.14,.27-1.54,.79-3.05,1.25-4.55,.07-.24,.38-.46,.63-.6,.65-.36,1.14-1.36,1.05-2.07-.05-.38,.04-.78,.06-1.18l.28-.04c-.68-.87-1.29-1.8-2.04-2.61-1.29-1.38-2.83-.9-4.34-.45-.47,.14-.99,.29-1.45,.22-1.38-.22-3.6,.71-4.44,1.81-.89,1.16-1.39,2.43-1.5,3.88-.01,.15-.07,.31-.14,.45-.47,.83-.65,1.72-.89,2.64-.85,3.2-1.54,6.42-1.93,9.71-.36,3.12-.66,6.25-.91,9.39-.1,1.25,.16,2.54-.02,3.77-.2,1.33-.1,2.51,.54,3.7,.19,.35,.08,.87,.05,1.31-.08,1.39,1.2,3.53,2.55,3.71,.98,.13,2.14,.76,3.1-.22,.14-.15,.39-.22,.6-.27,1.27-.31,2.55-.6,3.95-.72-.42,.33-.85,.66-1.26,1.01-1.16,1-2.36,1.97-3.46,3.04-1.27,1.23-2.94,1.56-4.49,2.11-.95,.34-2,.39-3.01,.57-.22,.04-.51,0-.64,.13-.77,.76-1.63,.4-2.48,.27-1.56-.24-3.15-.33-4.67-.7-2.48-.6-4.77-1.69-7.08-2.78-1.26-.59-2.04-1.58-3.11-2.28-.13-.09-.21-.31-.25-.48-.43-1.67-1.37-2.49-3.14-2.58-1.54-.07-3.08-.09-4.61-.04-.36,.01-.76,.31-1.04,.58-.38,.36-.63,.87-1.01,1.24-.35,.34-.72,.67-1.33,.35-.24-.13-.67,.15-.99,.1-.42-.06-.97-.14-1.17-.42-.21-.29-.19-.88-.05-1.25,.48-1.25,1.07-2.46,1.61-3.7,.48-1.12,.94-2.25,1.43-3.37,.77-1.78,1.59-3.54,2.31-5.35,.67-1.69,1.19-3.44,1.85-5.13,.35-.89,.83-1.74,1.26-2.6,1.05-2.1,2.12-4.2,3.17-6.3,.33-.66,.61-1.35,.99-1.98,.89-1.47,1.82-2.92,2.73-4.37,.3-.48,.55-.99,.89-1.44,.42-.56,.9-1.07,1.36-1.6,.12-.14,.31-.23,.43-.37,.63-.77,1.18-1.61,1.87-2.31,2.16-2.16,4.47-4.17,6.51-6.43,1.18-1.31,2.73-1.04,4.07-1.58,.11-.04,.49,.25,.52,.43,.05,.33-.04,.69-.1,1.03-.12,.64-.14,1.24,.4,1.76,.17,.16,.28,.44,.3,.67,.11,1,.63,1.62,1.61,1.85,1.03,.25,1.92-.21,2.41-.95,1.11-1.66,2.78-2.52,4.37-3.55,.7-.45,1.69-.87,1.54-2.07-.03-.21,.18-.47,.33-.67,.85-1.07,.64-2.33,.62-3.54,0-.72-.4-1.22-1.15-1.44-.44-.13-.9-.36-1.24-.67-1.29-1.16-2.61-1.58-4.12-.26l-.12-.25c.77-.81,1.54-1.63,2.32-2.44,.57-.58,1.16-1.15,1.73-1.73,.11-.11,.19-.3,.32-.34,1.71-.57,2.18-2.46,3.6-3.35,1.08-.68,2.13-1.41,3.2-2.11,.97-.63,1.83-1.68,3.2-.89,1,.58,2,1.13,2.99,1.72,1.26,.74,2.52,1.48,3.74,2.28,.78,.52,1.49,1.15,2.21,1.75,1.61,1.35,2.9,2.96,3.86,4.82,.26,.5,.42,1.05,.63,1.58l-.27,.13c-.15-.17-.35-.32-.44-.52-.6-1.21-1.66-1.78-2.9-1.75-2.07,.06-4.17-.28-6.17,.8-.61,.33-1.24,.59-1.77,1.07-.19,.17-.52,.19-.75,.34-.28,.17-.57,.36-.76,.62-.34,.45-.6,.96-.9,1.44-.25,.4-.52,.78-.75,1.18-.11,.19-.1,.44-.21,.63-1.27,2.3-.3,4.23,.95,6.15,.21,.32,.26,.84,.19,1.23-.21,1.23,.4,2.59,1.48,3.12,.06,.03,.12,.07,.18,.07,1.18-.14,2.43-.11,3.54-.48,1.09-.36,2.04-1.13,3.17-1.79Z"/><path class="b" d="M21.68,105.71c.44,.61,.81,1.2,1.26,1.73,1.01,1.16,1.9,2.53,3.14,3.35,2.07,1.37,3.7,3.27,5.94,4.43,2.19,1.14,4.15,2.7,6.32,3.89,1.59,.87,3.33,1.48,5.03,2.12,1.74,.65,3.47,1.4,5.28,1.76,2.42,.48,4.9,.62,7.36,.9,1.22,.14,2.43,.32,3.66,.38,1.47,.08,2.95,.05,4.42,.06,2.83,.02,5.67,.12,8.5,0,1.23-.05,2.52,.04,3.69-.85,1.42-1.09,3.07-1.88,4.74-2.86-.4,1.01-.75,1.96-1.16,2.88-.24,.55-.6,1.04-.89,1.57-1.32,2.36-2.55,4.77-3.97,7.07-1.25,2.02-2.67,3.93-4.08,5.83-.92,1.23-1.93,2.4-2.96,3.54-1.51,1.67-3.54,2.61-5.48,3.66-1.22,.66-2.44,1.31-3.68,1.93-.5,.25-1.05,.41-1.59,.58-.89,.3-1.78,.61-2.69,.85-.9,.24-1.83,.4-2.74,.59-2.27,.49-4.52,1.03-6.81,1.45-1.63,.3-3.3,.58-4.95,.58-3.16-.01-6.34-.05-9.35-1.32-1.27-.54-2.62-.89-3.93-1.34-.23-.08-.46-.21-.65-.37-1.59-1.33-3.25-2.58-4.74-4.02-1.35-1.31-2.52-2.79-3.71-4.25-.32-.4-.36-1.01-.61-1.48-.8-1.49-1.79-2.9-2.44-4.45-.67-1.6-1.03-3.32-1.5-5-.17-.6-.41-1.26-.31-1.84,.46-2.63,.83-5.3,1.63-7.84,.61-1.93,1.83-3.67,2.77-5.5,.98-1.88,1.93-3.78,2.94-5.64,.43-.79,.98-1.5,1.57-2.38Z"/></g><g><path d="M59.88,29.95c-1.76,.98-3.54,1.94-5.29,2.95-1.67,.96-3.34,1.91-4.95,2.95-1.19,.77-2.28,1.71-3.46,2.5-.94,.63-1.96,1.13-2.93,1.72-2.35,1.44-4.36,3.31-6.45,5.08-1.83,1.55-3.13,3.51-4.85,5.1-1.01,.93-.96,1.77-.14,2.92,.16,.22,.22,.67,.1,.89-.63,1.15-1.34,2.27-2.02,3.4-.05,.08-.14,.16-.15,.24-.19,2.15-2.08,1.93-3.43,2.59-1.27,.62-2.37,.58-3.69,.34-.82-.15-1.81,.71-2.71,.22-.85-.46-1.55-1.18-2.32-1.79-.04-.03-.05-.13-.03-.18,.29-.87,.62-1.74,.89-2.62,.23-.74,.35-1.51,.59-2.24,.34-1.06,.58-2.19,1.12-3.14,1.51-2.65,3.38-5.07,5.56-7.21,1.19-1.16,2.54-2.16,3.85-3.19,1.31-1.03,2.61-2.07,3.99-2.99,2.43-1.63,4.92-3.17,7.38-4.75,1.27-.82,2.5-1.71,3.81-2.46,1.77-1.02,3.6-1.93,5.41-2.89,.39-.21,.75-.47,1.14-.68,2-1.07,4-2.11,6-3.18,.5-.27,.95-.63,1.46-.86,1.11-.51,2.25-.94,3.35-1.45,2.71-1.25,5.63-1.59,8.53-1.98,.87-.12,1.03-.41,.86-1.23-.49-2.38-.96-4.76-1.32-7.16-.26-1.74-.35-3.51-.49-5.26-.12-1.52,1.1-2.24,1.94-3.19,.32-.36,.65-.77,.79-1.21,.36-1.15,.78-1.31,1.69-.52,1.06,.92,1.63,1.01,2.81,.41,.19-.1,.38-.23,.53-.38,.68-.72,1.56-.89,2.32-.31,.21,.16,.33,.7,.23,.98-.67,1.85-.51,3.73-.23,5.61,.03,.18,.12,.34,.24,.71,.35-.43,.65-.72,.88-1.06,.54-.84,1.2-1.47,2.18-1.85,1.34-.51,2.37-1.63,3.88-1.86,2.53-.39,5.03-.98,7.57-1.33,1.23-.17,2.51,.02,3.77,0,1.04-.01,2.08-.19,3.11-.11,3.55,.28,7.1,.62,10.64,.98,2.04,.21,4,.67,5.88,1.6,1.33,.66,2.86,.89,4.25,1.44,1.02,.4,2.03,.91,2.91,1.55,2.46,1.8,4.96,3.53,7.12,5.75,1.39,1.43,2.26,3.16,3.45,4.68,1.64,2.1,2.73,4.51,3.92,6.86,.5,.98,.98,1.99,1.28,3.05,.2,.7,.39,1.53-.44,2.14-.21,.15-.27,.69-.2,1.01,.25,1.13-.08,2.12-.57,3.09-.09,.19-.38,.39-.58,.39-.83,0-1.23,.53-1.58,1.17-.41,.76-1.09,1.06-1.92,.87-.86-.2-1.71-.46-2.53-.76-.2-.07-.35-.42-.41-.67-.19-.83-.18-1.74-.52-2.49-.98-2.13-1.98-4.28-3.21-6.28-1.28-2.09-2.75-4.07-4.29-5.98-1.06-1.31-2.33-2.47-3.61-3.59-1.34-1.17-2.74-2.31-4.23-3.28-1.09-.71-2.35-1.15-3.56-1.66-.66-.28-1.37-.43-2.05-.67-3.4-1.22-6.94-1.68-10.51-1.91-2.26-.15-4.53-.2-6.8-.25-1.38-.03-2.77-.07-4.15,.05-.93,.08-1.84,.4-2.76,.62-.12,.03-.29,.08-.33,.17-.56,1.42-1.91,1.45-3.08,1.8-.85,.25-1.15,.05-1.26-.79-.04-.26-.14-.58-.33-.73-.56-.47-1.19-.87-2.01-1.46,.21,1.36,.28,2.51,.57,3.6,.55,2.06,1.21,4.09,1.84,6.14,.24,.8-.36,.85-.85,1.06-.44,.19-.94,.39-1.24,.73-.37,.41-.26,.81,.41,.88,2.19,.22,4.24,.84,6.11,2.05,.18,.12,.61,.06,.8-.08,.23-.17,.52-.59,.45-.77-.25-.66,.13-.85,.58-1.08,1.11-.56,2.27-.76,3.49-.45,.12,.03,.27,.09,.37,.05,1.97-.7,3.08,.47,4.25,1.79,.82,.91,1.86,1.67,2.92,2.32,2.48,1.53,4.59,3.45,6.64,5.51,1.57,1.57,1.88,3.7,3.1,5.4,.71,.99,1.19,2.14,1.8,3.2,1.05,1.81,2.12,3.62,3.19,5.42,1.12,1.89,2.31,3.73,3.36,5.66,1,1.85,1.92,3.74,2.74,5.68,1.02,2.41,1.94,4.86,2.81,7.33,.56,1.62,1.2,3.28,1.35,4.96,.23,2.55,1.16,4.89,1.75,7.33,.37,1.55,.66,3.11,1.01,4.66,.12,.52,.33,1.02,.51,1.52,.4,1.12,.18,1.61-.89,2.09-.66,.3-1.28,.69-1.95,.94-.35,.13-.78,.02-1.17,.07-.32,.04-.69,.07-.95,.23-1.24,.77-2.56,.61-3.58-.41-.42-.41-.92-.76-1.44-1.04-.45-.23-.37-.42-.31-.87,.1-.82,.24-2.06-.21-2.43-1.21-1-.87-2.14-.94-3.37-.11-1.8-.51-3.58-.8-5.37-.02-.14-.17-.25-.44-.63-.15,1-.33,1.74-.35,2.49-.04,1.39,.04,2.76-.88,3.98-.31,.41-.27,1.07-.42,1.61-.5,1.77-1.07,3.52-1.5,5.31-.28,1.19-.24,2.46-.57,3.63-.63,2.23-1.39,4.43-2.18,6.6-.39,1.08-1.02,2.07-1.47,3.13-.34,.81-.5,1.69-.87,2.49-.64,1.38-1.36,2.72-2.07,4.07-.23,.44-.47,.9-.79,1.27-1.11,1.31-2.25,2.6-3.41,3.87-.22,.24-.59,.5-.89,.5-1.88,.03-2.24,1.56-2.87,2.82-.77,1.53-1.57,3.06-2.31,4.61-.84,1.75-1.63,3.54-2.47,5.29-1.42,2.95-2.86,5.88-4.31,8.81-.72,1.46-1.45,2.93-2.22,4.37-.19,.36-.64,.58-.85,.93-.39,.62-.65,1.31-1.03,1.93-1.06,1.7-1.98,3.54-3.3,5.02-1.73,1.94-3.68,3.73-5.74,5.31-1.47,1.12-3.28,1.82-4.97,2.65-1.3,.64-2.61,1.27-3.98,1.74-2.34,.8-4.72,1.48-7.08,2.21-1.56,.48-3.11,1.03-4.69,1.42-1.48,.37-3.01,.56-4.51,.84-2.24,.42-4.48,.89-6.73,1.28-.7,.12-1.44,0-2.15,.03-2.38,.12-4.76,.27-7.14,.38-1.18,.05-2.38,.13-3.56,.04-.83-.06-1.65-.58-2.46-.54-2.62,.12-4.96-.92-7.4-1.55-.74-.2-1.39-.73-2.11-1.05-1.97-.86-3.62-2.22-5.01-3.76-2.2-2.45-4.33-5.01-6.1-7.78-1.62-2.52-3.04-5.23-3.63-8.26-.06-.32-.24-.66-.46-.91-1.21-1.37-1.88-3-2.14-4.76-.28-1.86-.77-3.78-.54-5.6,.45-3.54,1.73-6.88,3.46-10.04,1.08-1.98,2.07-4,3.1-6.01,.64-1.25,1.23-2.54,1.95-3.75,.8-1.35,1.78-2.58,2.57-3.93,.8-1.35,1.45-2.79,2.18-4.18,.91-1.72,1.85-3.43,2.77-5.15,.29-.55,.53-1.14,.81-1.7,.54-1.05,1.18-2.06,1.64-3.15,.56-1.33,.93-2.74,1.44-4.09,1.08-2.82,2.1-5.66,3.33-8.41,1.23-2.74,2.67-5.38,4.04-8.06,1.19-2.32,2.23-4.74,3.66-6.9,1.78-2.66,3.76-5.21,5.9-7.6,2.18-2.43,4.7-4.55,6.99-6.89,1.98-2.02,3.8-4.2,5.79-6.22,.98-1,2.19-1.77,3.27-2.67,2.2-1.82,4.39-3.66,6.59-5.49,.14-.12,.3-.2,.46-.3l-.15-.19Zm26.94,22.17c-1.12,.66-2.08,1.42-3.17,1.79-1.11,.37-2.35,.34-3.54,.48-.06,0-.12-.04-.18-.07-1.08-.53-1.68-1.89-1.48-3.12,.07-.39,.02-.91-.19-1.23-1.25-1.92-2.22-3.85-.95-6.15,.1-.19,.1-.44,.21-.63,.23-.41,.51-.79,.75-1.18,.3-.48,.56-.99,.9-1.44,.19-.25,.49-.44,.76-.62,.23-.14,.56-.16,.75-.34,.53-.47,1.16-.74,1.77-1.07,2-1.08,4.11-.74,6.17-.8,1.24-.04,2.3,.54,2.9,1.75,.1,.2,.29,.35,.44,.52l.27-.13c-.21-.53-.37-1.08-.63-1.58-.97-1.86-2.25-3.48-3.86-4.82-.72-.6-1.43-1.23-2.21-1.75-1.22-.81-2.48-1.54-3.74-2.28-.99-.59-2-1.14-2.99-1.72-1.37-.79-2.23,.25-3.2,.89-1.07,.7-2.11,1.44-3.2,2.11-1.42,.88-1.89,2.78-3.6,3.35-.13,.04-.21,.23-.32,.34-.58,.58-1.16,1.14-1.73,1.73-.78,.81-1.55,1.63-2.32,2.44l.12,.25c1.51-1.32,2.84-.9,4.12,.26,.34,.31,.79,.54,1.24,.67,.75,.23,1.14,.73,1.15,1.44,.01,1.21,.23,2.47-.62,3.54-.15,.19-.35,.46-.33,.67,.15,1.2-.84,1.61-1.54,2.07-1.59,1.03-3.26,1.88-4.37,3.55-.5,.74-1.38,1.2-2.41,.95-.99-.23-1.5-.85-1.61-1.85-.03-.24-.14-.52-.3-.67-.54-.51-.51-1.11-.4-1.76,.06-.34,.16-.7,.1-1.03-.03-.18-.41-.47-.52-.43-1.34,.55-2.9,.28-4.07,1.58-2.04,2.27-4.36,4.27-6.51,6.43-.7,.7-1.25,1.54-1.87,2.31-.12,.14-.31,.23-.43,.37-.46,.52-.94,1.04-1.36,1.6-.34,.45-.59,.96-.89,1.44-.91,1.46-1.84,2.9-2.73,4.37-.38,.63-.66,1.32-.99,1.98-1.06,2.1-2.12,4.2-3.17,6.3-.43,.86-.92,1.7-1.26,2.6-.66,1.7-1.18,3.44-1.85,5.13-.72,1.8-1.54,3.57-2.31,5.35-.48,1.12-.94,2.25-1.43,3.37-.54,1.23-1.13,2.45-1.61,3.7-.14,.37-.16,.96,.05,1.25,.2,.28,.76,.36,1.17,.42,.32,.04,.75-.23,.99-.1,.61,.32,.99-.01,1.33-.35,.38-.37,.63-.87,1.01-1.24,.28-.27,.68-.57,1.04-.58,1.54-.05,3.08-.03,4.61,.04,1.76,.08,2.71,.9,3.14,2.58,.04,.17,.12,.39,.25,.48,1.07,.7,1.86,1.68,3.11,2.28,2.31,1.09,4.61,2.18,7.08,2.78,1.52,.37,3.11,.46,4.67,.7,.86,.13,1.71,.49,2.48-.27,.13-.13,.42-.1,.64-.13,1.01-.18,2.06-.23,3.01-.57,1.55-.56,3.22-.88,4.49-2.11,1.1-1.07,2.3-2.04,3.46-3.04,.41-.35,.84-.67,1.26-1.01-1.39,.12-2.67,.41-3.95,.72-.21,.05-.46,.12-.6,.27-.96,.99-2.12,.35-3.1,.22-1.35-.17-2.63-2.32-2.55-3.71,.03-.44,.13-.96-.05-1.31-.64-1.19-.73-2.37-.54-3.7,.18-1.23-.08-2.52,.02-3.77,.25-3.13,.54-6.26,.91-9.39,.38-3.28,1.07-6.51,1.93-9.71,.24-.91,.43-1.81,.89-2.64,.08-.13,.13-.3,.14-.45,.11-1.45,.61-2.71,1.5-3.88,.84-1.09,3.06-2.02,4.44-1.81,.46,.07,.98-.08,1.45-.22,1.52-.45,3.06-.93,4.34,.45,.75,.8,1.37,1.73,2.04,2.61l-.28,.04c-.02,.39-.11,.79-.06,1.18,.09,.71-.4,1.71-1.05,2.07-.25,.14-.55,.36-.63,.6-.46,1.51-.98,3.01-1.25,4.55-.54,3.03-.96,6.08-1.36,9.14-.19,1.46-.36,2.94-.32,4.4,.08,2.64,.27,5.28,.52,7.91,.14,1.51,.24,2.95-.74,4.23,0,.01,.06,.08,.15,.2,.67-.7,1.34-1.39,1.97-2.1,.3-.34,.47-.79,.8-1.09,1.5-1.38,3.06-2.71,4.56-4.09,.89-.82,1.94-1.03,3.03-.52,.69,.32,.84,.8,.29,1.33-.89,.86-1.16,1.91-1.26,3.08-.02,.3-.3,.58-.46,.88-.32,.59-.63,1.18-.95,1.77-.23,.44-.37,.99-.71,1.32-1.17,1.11-2.42,2.12-3.62,3.2-1.76,1.59-3.44,3.27-5.25,4.8-1.39,1.17-2.94,2.15-4.41,3.23-1.09,.8-2.16,1.62-3.23,2.44-.23,.18-.41,.42-.62,.63l.14,.22c.77-.33,1.62-.54,2.31-1,1.54-1.05,3.42-1.62,4.62-3.17,.15-.19,.4-.33,.63-.42,1.59-.58,2.47-2.01,3.65-3.06,2.23-1.98,4.25-4.2,6.4-6.28,.29-.28,.77-.43,1.19-.5,.14-.02,.55,.53,.49,.63-.42,.75-.87,1.49-1.4,2.17-1.15,1.48-2.92,2.44-3.58,4.34-.13,.36-.49,.65-.77,.95-.76,.81-1.54,1.61-2.46,2.58,.73-.08,1.15-.11,1.57-.18,.43-.07,1-.04,1.25-.3,1.21-1.24,2.81-2.19,2.72-4.34-.05-1.2,2.4-3.29,3.64-3.6,.86-.22,1.99-.4,2.44-1.01,1.13-1.51,1.85-3.34,2.93-4.89,.77-1.11,1.02-2.59,2.34-3.33,.25-.14,.59-.56,.53-.72-.36-.93,.21-1.65,.47-2.43,.51-1.51,.16-2.38-1.37-3.01,.19-.68,.49-1.36,.57-2.06,.22-1.93,.45-3.87,.49-5.81,.06-3,.59-6.03-.44-8.99-.5-1.44-.9-2.92-1.32-4.39-.2-.69,.04-1.22,.73-1.42,1.24-.35,2.49-.67,3.75-.94,.26-.06,.61,.12,.86,.27,.81,.49,1.6,1.04,2.41,1.54,.11,.07,.29,.03,.72,.06-2.1-5.57-4.94-10.62-7.16-15.95-.24,.97-.34,1.9-.48,2.82-.08,.52-.35,1.04-.31,1.54,.16,1.82-.33,3.45-1.31,4.93-.41,.62-.98,1.21-1.61,1.61-.59,.37-1.35,.47-2.02,.68l-.2-1.19ZM21.68,105.71c-.59,.88-1.14,1.6-1.57,2.38-1.01,1.86-1.96,3.76-2.94,5.64-.95,1.83-2.16,3.57-2.77,5.5-.8,2.53-1.17,5.21-1.63,7.84-.1,.58,.15,1.24,.31,1.84,.46,1.68,.83,3.4,1.5,5,.65,1.55,1.63,2.96,2.44,4.45,.25,.47,.29,1.08,.61,1.48,1.19,1.46,2.36,2.95,3.71,4.25,1.48,1.44,3.15,2.7,4.74,4.02,.19,.16,.42,.29,.65,.37,1.31,.45,2.66,.81,3.93,1.34,3.01,1.27,6.19,1.31,9.35,1.32,1.65,0,3.32-.28,4.95-.58,2.28-.41,4.54-.96,6.81-1.45,.91-.2,1.84-.35,2.74-.59,.91-.24,1.8-.56,2.69-.85,.54-.18,1.09-.33,1.59-.58,1.24-.62,2.46-1.27,3.68-1.93,1.94-1.05,3.96-1.99,5.48-3.66,1.03-1.14,2.04-2.31,2.96-3.54,1.42-1.91,2.84-3.82,4.08-5.83,1.42-2.3,2.65-4.71,3.97-7.07,.29-.52,.65-1.02,.89-1.57,.41-.92,.76-1.88,1.16-2.88-1.66,.99-3.31,1.78-4.74,2.86-1.17,.89-2.46,.8-3.69,.85-2.83,.13-5.66,.02-8.5,0-1.48,0-2.95,.01-4.42-.06-1.22-.06-2.44-.24-3.66-.38-2.46-.28-4.94-.42-7.36-.9-1.8-.36-3.54-1.1-5.28-1.76-1.7-.64-3.44-1.25-5.03-2.12-2.17-1.19-4.13-2.75-6.32-3.89-2.24-1.17-3.87-3.06-5.94-4.43-1.24-.82-2.13-2.2-3.14-3.35-.46-.52-.82-1.12-1.26-1.73Z"/><path d="M124.22,53.61c-.23-1.5-.44-2.99-.68-4.49-.33-2.09-.6-4.2-1.06-6.27-.25-1.12-.77-2.19-1.26-3.24-1.34-2.82-2.7-5.63-4.14-8.4-.47-.9-1.14-1.71-1.79-2.5-1.52-1.85-3.16-3.61-4.62-5.5-1.3-1.69-2.92-3.01-4.68-4.06-1.32-.78-2.9-1.28-4.42-1.52-2.26-.36-4.57-.42-6.86-.52-.97-.04-1.96,.08-2.91,.27-.65,.13-1.16,.11-1.64-.38-.31-.31-.65-.6-1.02-.84-1.64-1.07-1.65-2.91,.05-3.94,1.28-.78,2.61-1.47,3.94-2.16,.2-.1,.55-.03,.79,.06,.98,.37,1.68,.21,2.32-.58,.43-.53,1.53-.55,1.98,.05,.53,.7,1.06,1.01,1.92,.54,.28-.15,.68-.11,1.02-.09,.87,.06,1.74,.22,2.61,.23,4.28,.03,8.23,1.05,11.5,3.96,1.36,1.21,2.44,2.77,3.91,3.78,1.58,1.09,2.37,2.75,3.55,4.11,1.72,1.96,3.16,4.16,4.65,6.31,.41,.6,.58,1.37,.85,2.06,.66,1.69,1.29,3.4,1.98,5.08,.21,.51,.55,.97,.84,1.45,.08,.13,.21,.25,.25,.39,.52,2.17,1.01,4.35,1.56,6.52,.63,2.49,.71,5.1,1.73,7.5,.1,.23-.04,.61-.17,.87-.41,.76-.82,1.54-1.34,2.22-.31,.4-.83,.64-1.27,.93-.3,.19-.74,.26-.91,.52-.83,1.24-2.25,1.43-3.45,1.98-.2,.09-.56-.16-.85-.24-.35-.09-.79-.32-1.04-.19-.69,.36-.89-.05-1-.54-.23-1.1-.4-2.22-.6-3.33l.27-.04Z"/><path d="M2.51,55.54c.03-2.57,0-4.68,.1-6.79,.1-1.97,.33-3.94,.57-5.9,.05-.45,.34-.88,.55-1.3,.61-1.23,1.2-2.49,1.88-3.68,.94-1.64,1.93-3.25,2.98-4.82,.85-1.27,1.78-2.49,2.76-3.66,1.78-2.12,3.91-3.82,6.31-5.21,1.14-.66,2.2-1.46,3.32-2.16,.44-.28,.96-.42,1.43-.66,1.36-.72,2.7-1.48,4.08-2.18,.95-.49,1.94-.9,2.92-1.34,1.78-.81,3.55-1.62,5.32-2.44,3.4-1.57,6.78-3.21,10.22-4.68,1.72-.73,3.56-1.16,5.35-1.73,.18-.06,.36-.11,.54-.17,1.75-.5,3.51-1.42,5.25-1.39,1.88,.03,3.53-.9,5.36-.74,.34,.03,.7,.05,1.02,.15,.94,.29,1.23,.89,.87,1.81-.5,1.26-1.22,2.23-2.65,2.7-1.1,.36-2.13,1.05-3.08,1.74-1.51,1.1-3.3,1.15-4.99,1.61-1.06,.29-2.12,.58-3.17,.91-1.14,.36-2.27,.74-3.39,1.14-1.09,.39-2.18,.78-3.25,1.23-2.63,1.12-5.29,2.2-7.87,3.42-2.19,1.03-4.31,2.23-6.46,3.37-1.56,.83-3.16,1.58-4.64,2.53-1.49,.96-2.92,2.04-4.26,3.21-1.01,.89-1.97,1.91-2.68,3.04-1.46,2.32-2.41,4.84-2.91,7.58-.54,2.98-.16,5.96-.38,8.93-.03,.37,.23,.76,.35,1.14,.08,.28,.16,.57,.21,.86,.06,.3,.03,.63,.14,.92,.15,.41,.62,.88,.52,1.17-.26,.75-.64,1.55-1.2,2.09-1.1,1.06-2.35,2.04-3.89,2.3-1.2,.2-2.05,1-3.1,1.4-.6,.23-1.28,.31-1.93,.35-.18,.01-.46-.32-.58-.55-.25-.49-.45-1.02-.64-1.54-.38-1-.74-2.01-.98-2.65Z"/><path d="M18.5,43.03c.03-.85,.01-1.66,.11-2.45,.07-.62,.13-1.32,.46-1.8,.74-1.09,1.58-2.14,2.51-3.08,1.19-1.2,2.47-2.32,3.79-3.37,1.47-1.16,3.01-2.24,4.55-3.3,1.74-1.2,3.49-2.39,5.3-3.48,.99-.59,2.13-.94,3.18-1.44,.89-.43,1.72-.97,2.62-1.37,1.17-.52,2.39-.94,3.57-1.43,2.02-.83,4.05-1.67,6.05-2.54,.92-.4,1.76-1.07,2.71-1.28,.89-.2,1.87,.07,2.82,.08,1.33,.02,2.66-.04,3.99,0,.29,0,.69,.17,.84,.39,.38,.56,.28,1.17-.19,1.64-.56,.57-1.16,1.13-1.81,1.6-.47,.35-1.05,.53-1.57,.82-.65,.37-1.27,.8-1.93,1.15-1.02,.54-2.05,1.07-3.11,1.52-1.91,.82-3.85,1.59-5.78,2.37-2.74,1.11-5.57,2.05-8.19,3.38-1.9,.97-3.53,2.48-5.31,3.7-1.69,1.16-2.54,2.96-3.72,4.53-1.14,1.51-2.35,3.38-4.7,3.47-.19,0-.42,.16-.56,.32-.78,.83-1.8,1.14-2.87,1.3-.41,.06-.88,0-1.28-.12-.56-.16-1.08-.44-1.49-.61Z"/><path class="b" d="M86.82,52.12l.2,1.19c.67-.21,1.43-.31,2.02-.68,.63-.4,1.2-.98,1.61-1.61,.98-1.48,1.47-3.11,1.31-4.93-.04-.5,.23-1.02,.31-1.54,.14-.92,.24-1.85,.48-2.82,2.22,5.33,5.06,10.37,7.16,15.95-.43-.03-.61,0-.72-.06-.81-.51-1.59-1.05-2.41-1.54-.25-.15-.6-.33-.86-.27-1.26,.27-2.51,.59-3.75,.94-.69,.2-.93,.73-.73,1.42,.43,1.47,.82,2.95,1.32,4.39,1.03,2.96,.5,5.99,.44,8.99-.04,1.94-.27,3.88-.49,5.81-.08,.7-.37,1.38-.57,2.06,1.53,.63,1.88,1.5,1.37,3.01-.26,.77-.83,1.5-.47,2.43,.06,.15-.28,.58-.53,.72-1.32,.74-1.57,2.22-2.34,3.33-1.08,1.56-1.8,3.38-2.93,4.89-.46,.61-1.58,.8-2.44,1.01-1.24,.31-3.69,2.4-3.64,3.6,.09,2.15-1.51,3.1-2.72,4.34-.25,.26-.82,.23-1.25,.3-.42,.07-.85,.1-1.57,.18,.93-.97,1.7-1.77,2.46-2.58,.28-.3,.65-.58,.77-.95,.66-1.9,2.43-2.87,3.58-4.34,.53-.68,.99-1.42,1.4-2.17,.05-.1-.36-.65-.49-.63-.41,.06-.89,.21-1.19,.5-2.14,2.08-4.17,4.3-6.4,6.28-1.18,1.05-2.06,2.49-3.65,3.06-.23,.08-.48,.23-.63,.42-1.21,1.55-3.08,2.11-4.62,3.17-.68,.46-1.53,.68-2.31,1l-.14-.22c.2-.21,.39-.45,.62-.63,1.07-.82,2.14-1.64,3.23-2.44,1.47-1.08,3.02-2.06,4.41-3.23,1.81-1.53,3.5-3.21,5.25-4.8,1.19-1.08,2.45-2.09,3.62-3.2,.34-.33,.48-.88,.71-1.32,.31-.59,.63-1.18,.95-1.77,.16-.29,.43-.57,.46-.88,.09-1.17,.37-2.22,1.26-3.08,.55-.53,.4-1-.29-1.33-1.09-.51-2.14-.3-3.03,.52-1.5,1.38-3.06,2.71-4.56,4.09-.33,.3-.5,.76-.8,1.09-.64,.71-1.31,1.4-1.97,2.1-.09-.12-.16-.19-.15-.2,.98-1.28,.89-2.72,.74-4.23-.25-2.63-.44-5.27-.52-7.91-.04-1.46,.13-2.94,.32-4.4,.4-3.05,.82-6.1,1.36-9.14,.27-1.54,.79-3.05,1.25-4.55,.07-.24,.38-.46,.63-.6,.65-.36,1.14-1.36,1.05-2.07-.05-.38,.04-.78,.06-1.18l.28-.04c-.68-.87-1.29-1.8-2.04-2.61-1.29-1.38-2.83-.9-4.34-.45-.47,.14-.99,.29-1.45,.22-1.38-.22-3.6,.71-4.44,1.81-.89,1.16-1.39,2.43-1.5,3.88-.01,.15-.07,.31-.14,.45-.47,.83-.65,1.72-.89,2.64-.85,3.2-1.54,6.42-1.93,9.71-.36,3.12-.66,6.25-.91,9.39-.1,1.25,.16,2.54-.02,3.77-.2,1.33-.1,2.51,.54,3.7,.19,.35,.08,.87,.05,1.31-.08,1.39,1.2,3.53,2.55,3.71,.98,.13,2.14,.76,3.1-.22,.14-.15,.39-.22,.6-.27,1.27-.31,2.55-.6,3.95-.72-.42,.33-.85,.66-1.26,1.01-1.16,1-2.36,1.97-3.46,3.04-1.27,1.23-2.94,1.56-4.49,2.11-.95,.34-2,.39-3.01,.57-.22,.04-.51,0-.64,.13-.77,.76-1.63,.4-2.48,.27-1.56-.24-3.15-.33-4.67-.7-2.48-.6-4.77-1.69-7.08-2.78-1.26-.59-2.04-1.58-3.11-2.28-.13-.09-.21-.31-.25-.48-.43-1.67-1.37-2.49-3.14-2.58-1.54-.07-3.08-.09-4.61-.04-.36,.01-.76,.31-1.04,.58-.38,.36-.63,.87-1.01,1.24-.35,.34-.72,.67-1.33,.35-.24-.13-.67,.15-.99,.1-.42-.06-.97-.14-1.17-.42-.21-.29-.19-.88-.05-1.25,.48-1.25,1.07-2.46,1.61-3.7,.48-1.12,.94-2.25,1.43-3.37,.77-1.78,1.59-3.54,2.31-5.35,.67-1.69,1.19-3.44,1.85-5.13,.35-.89,.83-1.74,1.26-2.6,1.05-2.1,2.12-4.2,3.17-6.3,.33-.66,.61-1.35,.99-1.98,.89-1.47,1.82-2.92,2.73-4.37,.3-.48,.55-.99,.89-1.44,.42-.56,.9-1.07,1.36-1.6,.12-.14,.31-.23,.43-.37,.63-.77,1.18-1.61,1.87-2.31,2.16-2.16,4.47-4.17,6.51-6.43,1.18-1.31,2.73-1.04,4.07-1.58,.11-.04,.49,.25,.52,.43,.05,.33-.04,.69-.1,1.03-.12,.64-.14,1.24,.4,1.76,.17,.16,.28,.44,.3,.67,.11,1,.63,1.62,1.61,1.85,1.03,.25,1.92-.21,2.41-.95,1.11-1.66,2.78-2.52,4.37-3.55,.7-.45,1.69-.87,1.54-2.07-.03-.21,.18-.47,.33-.67,.85-1.07,.64-2.33,.62-3.54,0-.72-.4-1.22-1.15-1.44-.44-.13-.9-.36-1.24-.67-1.29-1.16-2.61-1.58-4.12-.26l-.12-.25c.77-.81,1.54-1.63,2.32-2.44,.57-.58,1.16-1.15,1.73-1.73,.11-.11,.19-.3,.32-.34,1.71-.57,2.18-2.46,3.6-3.35,1.08-.68,2.13-1.41,3.2-2.11,.97-.63,1.83-1.68,3.2-.89,1,.58,2,1.13,2.99,1.72,1.26,.74,2.52,1.48,3.74,2.28,.78,.52,1.49,1.15,2.21,1.75,1.61,1.35,2.9,2.96,3.86,4.82,.26,.5,.42,1.05,.63,1.58l-.27,.13c-.15-.17-.35-.32-.44-.52-.6-1.21-1.66-1.78-2.9-1.75-2.07,.06-4.17-.28-6.17,.8-.61,.33-1.24,.59-1.77,1.07-.19,.17-.52,.19-.75,.34-.28,.17-.57,.36-.76,.62-.34,.45-.6,.96-.9,1.44-.25,.4-.52,.78-.75,1.18-.11,.19-.1,.44-.21,.63-1.27,2.3-.3,4.23,.95,6.15,.21,.32,.26,.84,.19,1.23-.21,1.23,.4,2.59,1.48,3.12,.06,.03,.12,.07,.18,.07,1.18-.14,2.43-.11,3.54-.48,1.09-.36,2.04-1.13,3.17-1.79Z"/><path class="b" d="M21.68,105.71c.44,.61,.81,1.2,1.26,1.73,1.01,1.16,1.9,2.53,3.14,3.35,2.07,1.37,3.7,3.27,5.94,4.43,2.19,1.14,4.15,2.7,6.32,3.89,1.59,.87,3.33,1.48,5.03,2.12,1.74,.65,3.47,1.4,5.28,1.76,2.42,.48,4.9,.62,7.36,.9,1.22,.14,2.43,.32,3.66,.38,1.47,.08,2.95,.05,4.42,.06,2.83,.02,5.67,.12,8.5,0,1.23-.05,2.52,.04,3.69-.85,1.42-1.09,3.07-1.88,4.74-2.86-.4,1.01-.75,1.96-1.16,2.88-.24,.55-.6,1.04-.89,1.57-1.32,2.36-2.55,4.77-3.97,7.07-1.25,2.02-2.67,3.93-4.08,5.83-.92,1.23-1.93,2.4-2.96,3.54-1.51,1.67-3.54,2.61-5.48,3.66-1.22,.66-2.44,1.31-3.68,1.93-.5,.25-1.05,.41-1.59,.58-.89,.3-1.78,.61-2.69,.85-.9,.24-1.83,.4-2.74,.59-2.27,.49-4.52,1.03-6.81,1.45-1.63,.3-3.3,.58-4.95,.58-3.16-.01-6.34-.05-9.35-1.32-1.27-.54-2.62-.89-3.93-1.34-.23-.08-.46-.21-.65-.37-1.59-1.33-3.25-2.58-4.74-4.02-1.35-1.31-2.52-2.79-3.71-4.25-.32-.4-.36-1.01-.61-1.48-.8-1.49-1.79-2.9-2.44-4.45-.67-1.6-1.03-3.32-1.5-5-.17-.6-.41-1.26-.31-1.84,.46-2.63,.83-5.3,1.63-7.84,.61-1.93,1.83-3.67,2.77-5.5,.98-1.88,1.93-3.78,2.94-5.64,.43-.79,.98-1.5,1.57-2.38Z"/></g></svg>